<?xml version="1.0" standalone="no"?>
<!DOCTYPE svg PUBLIC "-//W3C//DTD SVG 20010904//EN"
 "http://www.w3.org/TR/2001/REC-SVG-20010904/DTD/svg10.dtd">
<svg version="1.0" xmlns="http://www.w3.org/2000/svg"
 width="500.000000pt" height="500.000000pt" viewBox="0 0 500.000000 500.000000"
 preserveAspectRatio="xMidYMid meet">
<metadata>
Created by potrace 1.11, written by Peter Selinger 2001-2013
</metadata>
<g transform="translate(0.000000,500.000000) scale(0.100000,-0.100000)"
fill="#000000" stroke="none">
<path d="M3087 4944 c-1 -1 -49 -5 -107 -8 -58 -4 -118 -9 -135 -11 -16 -3
-50 -7 -75 -10 -86 -9 -226 -36 -341 -65 -327 -83 -574 -211 -739 -384 -165
-175 -253 -244 -360 -286 -30 -11 -68 -27 -85 -34 -16 -7 -61 -26 -100 -42
-184 -75 -321 -177 -406 -300 -72 -105 -131 -271 -146 -408 -5 -46 -12 -64
-31 -80 -88 -75 -121 -161 -98 -261 7 -30 6 -31 -101 -82 -167 -81 -258 -145
-307 -217 -58 -85 -18 -152 124 -209 192 -76 412 -85 586 -23 134 47 242 116
356 228 46 45 48 46 125 52 143 10 333 60 482 127 35 16 66 27 68 25 3 -2 -5
-23 -17 -47 -73 -142 -132 -351 -132 -465 0 -91 17 -146 62 -197 52 -58 93
-57 216 5 57 28 102 44 120 43 16 -2 34 -3 40 -4 6 -1 28 -16 50 -34 75 -64
122 -56 217 37 90 87 121 101 232 101 52 0 99 5 111 12 29 17 54 83 54 142 0
39 -6 56 -34 92 -136 179 -252 412 -200 402 128 -24 566 -22 724 3 58 9 153
35 180 49 30 15 46 9 152 -62 94 -63 155 -118 162 -149 9 -33 6 -36 -273 -319
-371 -377 -502 -538 -590 -724 -31 -67 -35 -85 -36 -158 0 -76 2 -83 31 -119
31 -39 88 -66 169 -79 46 -7 178 -8 215 -1 14 3 36 7 50 10 401 73 953 432
1301 846 106 126 200 294 253 454 68 203 91 364 91 616 -1 263 -37 400 -165
628 -174 310 -288 451 -475 585 -192 137 -522 264 -763 293 -20 3 -48 7 -61 9
-50 9 -387 25 -394 19z"/>
<path d="M875 1372 l-51 -3 1 -277 c1 -296 4 -310 54 -356 25 -22 104 -45 136
-38 21 3 23 10 23 58 -1 55 -3 58 -44 55 -12 -1 -29 5 -38 14 -14 14 -16 50
-16 280 0 145 -3 265 -7 267 -5 2 -31 2 -58 0z"/>
<path d="M1782 1372 l-52 -3 1 -50 2 -50 56 3 56 3 3 44 c2 24 0 46 -5 50 -4
3 -32 5 -61 3z"/>
<path d="M2365 1370 c-1 -3 -2 -123 -2 -267 0 -184 -3 -266 -12 -276 -8 -11
-42 -14 -136 -15 -154 0 -153 -1 -150 132 2 110 6 114 118 114 151 0 137 -6
135 57 l-2 55 -73 1 c-40 0 -85 1 -100 2 -53 1 -108 -13 -134 -36 -47 -39 -57
-73 -58 -197 -2 -103 0 -120 21 -159 39 -73 73 -84 244 -83 128 0 148 3 182
22 75 42 77 49 78 367 l1 281 -54 4 c-30 1 -56 1 -58 -2z"/>
<path d="M3992 1360 c-85 -39 -89 -57 -90 -382 l0 -277 26 -3 c15 -2 41 -1 59
0 l31 4 -1 269 c0 196 3 273 12 282 8 8 57 12 153 12 l141 0 2 37 c3 76 3 76
-155 75 -109 0 -149 -4 -178 -17z"/>
<path d="M198 1310 c-20 -16 -21 -24 -21 -309 0 -160 3 -294 6 -297 5 -5 60
-8 95 -5 9 1 12 59 12 256 l0 255 63 1 c34 0 136 1 227 2 l165 2 3 57 3 57
-266 -1 c-235 -1 -268 -3 -287 -18z"/>
<path d="M2682 1310 c-146 -65 -141 -282 7 -342 14 -6 102 -12 195 -13 163 -1
170 -2 187 -24 25 -30 24 -72 -1 -98 -18 -20 -28 -21 -237 -21 -120 0 -226 -1
-235 -1 -15 -1 -18 -11 -18 -56 0 -45 3 -55 18 -56 136 -5 463 1 486 10 76 30
114 83 120 168 3 41 -17 98 -46 134 -12 14 -99 64 -105 60 -2 0 -75 -1 -163
-1 -147 0 -162 2 -180 20 -25 25 -26 71 -2 100 17 21 24 22 229 22 l211 0 -2
57 -1 56 -212 1 c-180 1 -218 -2 -251 -16z"/>
<path d="M4512 1278 c0 -29 -1 -66 -1 -81 l-1 -28 -70 3 c-39 2 -70 1 -71 -2
0 -3 -2 -27 -3 -53 -4 -57 -2 -58 85 -60 l62 -2 -1 -177 c-1 -198 -5 -186 75
-179 l43 3 -1 162 c0 88 0 168 0 177 1 14 14 17 74 17 136 0 124 -5 126 57 l2
55 -53 1 c-29 1 -74 1 -100 0 l-48 -1 -1 53 c-2 110 3 102 -60 105 l-57 3 0
-53z"/>
<path d="M1125 1172 l-30 -3 1 -150 c2 -171 14 -219 70 -268 48 -43 99 -53
265 -53 161 -1 188 6 190 50 4 119 3 406 -1 412 -5 9 -38 13 -82 11 l-28 -1 0
-179 0 -179 -107 0 c-123 1 -168 14 -183 53 -6 15 -10 88 -10 165 l0 138 -27
3 c-16 2 -41 3 -58 1z"/>
<path d="M1773 1172 l-41 -3 -1 -235 c0 -260 -7 -236 64 -236 14 0 31 0 38 1
11 1 14 47 14 235 0 262 6 244 -74 238z"/>
<path d="M3421 1168 c-61 -7 -97 -30 -125 -78 -16 -27 -19 -52 -19 -155 1
-126 9 -160 49 -197 35 -31 78 -40 210 -40 139 -1 163 3 207 34 48 34 59 69
60 195 2 97 -1 121 -18 156 -32 66 -72 87 -169 88 -45 0 -95 1 -111 2 -17 1
-54 -1 -84 -5z m253 -124 c19 -19 19 -200 0 -218 -15 -15 -224 -19 -261 -5
-22 8 -23 14 -23 108 0 73 4 103 14 114 21 20 250 21 270 1z"/>
<path d="M4094 1170 c-29 -5 -30 -7 -31 -57 -2 -44 1 -53 15 -54 27 -1 215 -1
233 0 13 1 15 11 12 53 -1 28 -4 53 -6 55 -6 6 -189 8 -223 3z"/>
<path d="M339 1055 c0 -8 -1 -31 -1 -50 0 -19 1 -38 1 -43 1 -4 81 -7 178 -7
l177 0 3 58 4 57 -181 0 c-153 0 -180 -2 -181 -15z"/>
<path d="M1830 520 c-12 -7 -15 -40 -15 -177 l0 -168 32 -3 31 -3 -1 115 c0
64 1 118 4 121 3 2 54 -47 114 -111 169 -180 169 -180 170 55 l1 171 -33 0
-33 0 0 -122 0 -123 -123 128 c-67 70 -124 127 -127 127 -3 0 -12 -4 -20 -10z"/>
<path d="M2349 520 c-80 -22 -115 -87 -107 -199 9 -117 54 -155 188 -155 71 0
92 4 121 22 53 32 73 84 67 174 -5 82 -18 110 -66 140 -35 22 -151 32 -203 18z
m160 -65 c30 -9 44 -42 46 -105 3 -98 -19 -120 -124 -120 -64 0 -81 4 -99 20
-25 24 -24 20 -27 85 -2 64 17 113 47 119 59 13 119 13 157 1z"/>
<path d="M3183 519 c-82 -17 -117 -69 -117 -175 1 -128 59 -183 191 -179 84 2
110 10 145 43 54 50 59 209 10 266 -40 44 -140 64 -229 45z m179 -89 c13 -16
18 -40 18 -87 0 -55 -4 -67 -25 -88 -21 -22 -33 -25 -98 -25 -60 0 -79 4 -101
21 -24 18 -26 27 -26 89 0 87 17 111 86 120 68 8 125 -4 146 -30z"/>
<path d="M189 518 c-1 -2 -2 -15 -3 -30 -2 -20 2 -28 13 -29 9 0 41 -1 71 -2
l55 -2 0 -142 0 -143 32 0 33 0 0 145 0 144 38 -1 c93 -1 98 0 100 32 l2 30
-170 0 c-93 0 -170 -1 -171 -2z"/>
<path d="M596 504 c-3 -9 -6 -74 -6 -146 l0 -130 29 -29 29 -29 131 0 131 0 0
30 c0 34 9 32 -140 32 -52 0 -100 4 -105 8 -6 5 -11 52 -10 112 l0 103 105 2
c58 1 115 2 128 2 18 1 22 7 22 31 l0 30 -154 0 c-131 0 -155 -2 -160 -16z"/>
<path d="M1024 508 c-12 -5 -27 -21 -33 -34 -14 -32 -14 -226 0 -257 18 -39
50 -47 183 -47 l123 0 1 30 c1 34 7 33 -155 31 -68 0 -84 3 -91 17 -12 23 -12
184 0 199 6 8 41 12 96 12 160 -1 151 -3 150 31 l-1 30 -126 -1 c-69 0 -136
-5 -147 -11z"/>
<path d="M1371 345 l0 -175 32 0 33 0 -1 70 c-1 79 -13 71 105 71 133 0 120 7
119 -58 -2 -83 -2 -83 31 -83 34 0 31 -21 33 207 l2 143 -32 0 c-36 0 -35 2
-35 -82 0 -53 -2 -58 -21 -59 -12 0 -62 -1 -112 -1 l-90 -1 0 72 1 71 -33 0
-32 0 0 -175z"/>
<path d="M2700 351 c0 -145 2 -170 16 -175 9 -3 81 -6 160 -6 l144 0 0 30 c0
17 -5 30 -12 31 -7 0 -65 1 -129 1 l-116 0 1 144 1 144 -32 0 -33 0 0 -169z"/>
<path d="M3569 513 c-35 -9 -49 -57 -49 -173 0 -110 0 -112 29 -141 l29 -29
140 0 c118 0 141 2 146 16 12 30 7 171 -6 181 -7 6 -59 10 -115 11 l-101 0 -4
-29 c-3 -17 -1 -32 3 -34 4 -3 42 -4 85 -3 l79 2 1 -41 1 -40 -103 0 c-65 0
-107 4 -113 11 -7 9 -9 177 -2 207 0 4 47 7 104 7 192 1 177 -2 177 32 l0 30
-142 -1 c-79 -1 -150 -3 -159 -6z"/>
<path d="M3952 345 l-1 -175 32 0 32 0 0 175 0 175 -31 0 -32 0 0 -175z"/>
<path d="M4112 503 c-13 -28 -8 -264 7 -291 19 -35 51 -42 184 -42 l122 0 0
30 c0 20 -5 30 -15 31 -8 0 -64 1 -125 2 l-110 2 -3 111 -3 112 103 0 c147 1
145 0 150 20 11 40 2 42 -152 42 -132 0 -150 -2 -158 -17z"/>
<path d="M4520 491 c-28 -28 -32 -38 -33 -87 0 -32 32 -72 66 -83 18 -5 69
-10 115 -10 93 0 102 -3 102 -35 0 -37 -19 -44 -120 -44 -171 0 -160 2 -160
-32 l0 -30 129 0 c71 0 141 4 155 10 34 12 66 65 61 101 -9 74 -50 97 -177 97
-47 0 -91 3 -97 6 -17 11 -13 54 7 65 9 5 60 9 112 9 52 1 102 1 111 1 11 1
15 10 14 29 l-1 27 -127 3 -128 3 -29 -30z"/>
<path d="M680 344 l0 -33 100 1 100 1 0 32 0 32 -100 0 -100 0 0 -33z"/>
<path d="M4199 364 c-5 -52 -11 -49 96 -50 l100 -1 1 28 c2 35 -8 38 -113 37
-63 0 -83 -4 -84 -14z"/>
</g>
</svg>
